<?xml version="1.0" encoding="utf-8"?>
<!-- Generator: Adobe Illustrator 25.2.1, SVG Export Plug-In . SVG Version: 6.00 Build 0)  -->
<svg version="1.1" id="Layer_1" xmlns="http://www.w3.org/2000/svg" xmlns:xlink="http://www.w3.org/1999/xlink" x="0px" y="0px"
	 viewBox="0 0 14 14" style="enable-background:new 0 0 14 14;" xml:space="preserve">
<style type="text/css">
	.st0{fill:none;stroke:#000000;stroke-width:0.5;stroke-linecap:round;stroke-linejoin:round;stroke-miterlimit:10;}
</style>
<path class="st0" d="M7.81,5.97C8.04,6.47,8.6,6.53,9,6.74C9.17,6.83,9.34,6.9,9.52,6.96c0.73,0.22,0.97,0.68,0.84,1.5
	c-0.08,0.51-0.08,1.03,0.01,1.54c0.12,0.62-0.18,0.87-0.6,0.88c-0.37,0-0.64,0.17-0.95,0.29c-1.16,0.43-2.34,0.38-3.51,0.06
	c-0.24-0.07-0.5-0.18-0.48-0.53c0.05-0.83-0.08-1.67,0.07-2.5"/>
<path class="st0" d="M6.26,5.9c-0.54-0.68-0.71-1.45-0.61-2.3c0.07-0.52,0.39-0.84,0.88-1.01C7.06,2.41,7.66,2.58,8.08,3
	c0.5,0.48,0.44,1.41,0.06,2.23c-0.33,0.7-0.65,1.11-1.81,0.66C5.97,6.43,5.35,6.62,4.77,6.84c-1.1,0.42-1.19,0.69-1.15,1.61
	C3.63,8.83,3.63,9.22,3.63,9.6c-0.02,1.22,0.06,1.38,1.14,1.23"/>
<path class="st0" d="M8.28,4.22C7.83,4.27,7.41,4.24,6.99,4.02C6.62,3.83,6.21,3.73,5.78,3.88"/>
<path class="st0" d="M9.16,8.34C9.2,9.17,9.08,10,9.23,10.83"/>
</svg>
