<?xml version="1.0" encoding="utf-8"?>
<!-- Generator: Adobe Illustrator 25.2.1, SVG Export Plug-In . SVG Version: 6.00 Build 0)  -->
<svg version="1.1" id="Layer_1" xmlns="http://www.w3.org/2000/svg" xmlns:xlink="http://www.w3.org/1999/xlink" x="0px" y="0px"
	 viewBox="0 0 14 14" style="enable-background:new 0 0 14 14;" xml:space="preserve">
<style type="text/css">
	.st0{fill:none;stroke:#000000;stroke-width:0.5;stroke-linecap:round;stroke-linejoin:round;stroke-miterlimit:10;}
</style>
<path class="st0" d="M7.81,13.09C7.61,13,4.93,13.49,4.95,13c0.04-1.15,0-2.81,0.13-3.95"/>
<path class="st0" d="M7.26,6.06c0.12,0.59,0.58,1.08,0.8,1.3c0.12,0.12,0.12,0.17,0.24,0.27c0.33,0.26,0.7,1.25,0.68,2.08
	c-0.02,0.84-0.03,1.33,0,2.17c0.02,0.66,0,1.33-1.16,1.2"/>
<path class="st0" d="M6.33,5.86C5.97,5.18,5.1,3.61,5.18,2.44C5.28,1,6.45,0.69,6.93,0.8C7.5,0.93,7.8,1.08,8.21,1.68
	c0.48,0.7,0.56,2.2-0.15,3.24C7.46,5.79,7.43,6.52,6.33,5.86C5.98,6.66,5.38,6.92,4.82,7.25c-1.1,0.63-1.15,1.02-1.1,2.45
	c0.02,0.65,0,1.3,0,1.95c0,1.38,0.27,1.54,1.23,1.35"/>
<path class="st0" d="M8.21,3.58c-0.67,0.08-0.37,0-1-0.32c-0.55-0.29-1.39-0.62-2.03-0.4"/>
<path class="st0" d="M7.69,9.04c0.04,1.19,0.1,2.87,0.24,4.05"/>
</svg>
