<?xml version="1.0" encoding="utf-8"?>
<!-- Generator: Adobe Illustrator 25.2.1, SVG Export Plug-In . SVG Version: 6.00 Build 0)  -->
<svg version="1.1" id="Layer_1" xmlns="http://www.w3.org/2000/svg" xmlns:xlink="http://www.w3.org/1999/xlink" x="0px" y="0px"
	 viewBox="0 0 14 14" style="enable-background:new 0 0 14 14;" xml:space="preserve">
<style type="text/css">
	.st0{fill:none;stroke:#000000;stroke-width:0.5;stroke-linecap:round;stroke-linejoin:round;stroke-miterlimit:10;}
</style>
<path class="st0" d="M6.22,5.76C5.7,6.03,5.19,6.3,4.67,6.56c-1.49,0.75-2.13,2.07-1.73,3.62c0.16,0.61,0.34,1.07,1.23,1.01
	c0.45-0.03,1.01,0.45,1.59,0.51c1.31,0.13,2.62,0.23,3.84-0.43c0.09-0.05,0.21-0.15,0.29-0.14c0.81,0.18,1.03-0.08,1.21-0.94
	c0.37-1.83-0.28-3.1-1.93-3.77C8.74,6.25,8.3,6.12,8,5.76"/>
<path class="st0" d="M8.43,4.03c0.38-0.61,0.02-1.05-0.37-1.44C7.65,2.16,6.98,2.11,6.4,2.36C5.88,2.58,5.65,2.91,5.58,3.52
	C5.49,4.3,5.64,4.95,6.11,5.55C6.48,6.01,7.24,6.2,7.7,5.82C8.22,5.4,8.6,4.85,8.5,4.1"/>
<path class="st0" d="M5.75,3.59C6.4,3.5,6.99,3.75,7.55,3.98c0.29,0.12,0.53,0.16,0.8,0.05"/>
<path class="st0" d="M4.38,8.44c-0.22,0.86-0.13,1.73-0.14,2.61"/>
<path class="st0" d="M9.73,8.44c0.22,0.86,0.13,1.74,0.14,2.61"/>
</svg>
